<?xml version="1.0" standalone="no"?>
<!DOCTYPE svg PUBLIC "-//W3C//DTD SVG 20010904//EN"
 "http://www.w3.org/TR/2001/REC-SVG-20010904/DTD/svg10.dtd">
<svg version="1.0" xmlns="http://www.w3.org/2000/svg"
 width="767.000000pt" height="767.000000pt" viewBox="0 0 767.000000 767.000000"
 preserveAspectRatio="xMidYMid meet">
<metadata>
Created by potrace 1.14, written by Peter Selinger 2001-2017
</metadata>
<g transform="translate(0.000000,767.000000) scale(0.100000,-0.100000)"
fill="#000000" stroke="none">
<path d="M5243 5840 l0 -270 88 0 89 0 0 270 0 270 -88 0 -89 0 0 -270z"/>
<path d="M4365 5874 c-11 -9 -41 -27 -67 -40 -27 -13 -48 -30 -48 -36 0 -12
101 -191 171 -305 22 -34 39 -65 39 -68 0 -3 13 -25 28 -50 25 -41 30 -44 47
-31 11 7 43 25 70 41 28 15 53 29 57 32 7 3 -10 36 -50 98 -6 11 -15 27 -19
35 -4 8 -33 59 -65 113 -32 54 -58 102 -58 107 0 5 -3 10 -7 12 -5 2 -20 25
-35 53 -30 57 -36 60 -63 39z"/>
<path d="M6215 5803 c-27 -48 -62 -108 -76 -135 -14 -26 -31 -53 -36 -60 -6
-7 -24 -40 -42 -72 -18 -32 -39 -68 -46 -80 -22 -30 -19 -40 18 -59 17 -8 51
-27 73 -41 l42 -26 54 93 c31 50 69 117 86 147 16 30 53 93 80 140 28 47 48
88 46 92 -3 5 -142 88 -147 88 -1 0 -24 -39 -52 -87z"/>
<path d="M5248 5395 c-2 -1 -34 -5 -73 -9 -90 -8 -241 -47 -340 -86 -236 -94
-445 -258 -596 -471 -58 -80 -149 -248 -161 -297 -7 -26 5 -28 -198 25 -134
35 -250 69 -550 158 -235 69 -248 73 -345 96 -49 11 -97 22 -105 24 -48 11
-233 45 -275 51 -27 3 -52 8 -55 9 -3 2 -37 6 -75 10 -39 3 -77 8 -85 10 -23
6 -265 18 -360 17 -82 0 -256 -10 -289 -17 -9 -1 -38 -6 -64 -9 -26 -4 -71
-11 -100 -17 -29 -6 -63 -12 -77 -15 -14 -3 -63 -16 -110 -30 -338 -101 -633
-295 -835 -549 -22 -27 -43 -52 -46 -55 -19 -15 -134 -204 -183 -299 -82 -160
-187 -445 -212 -576 -4 -20 -11 -51 -18 -82 -14 -60 -36 -175 -41 -218 -4 -27
-8 -57 -10 -65 -2 -8 -7 -42 -10 -75 -4 -33 -8 -71 -11 -85 -26 -166 -26 -868
1 -1090 2 -14 4 -41 6 -60 1 -19 5 10 10 64 25 309 186 578 505 846 204 172
541 352 874 468 155 54 325 104 390 117 8 2 35 8 60 15 25 7 52 13 61 15 9 2
74 15 145 28 128 25 280 50 383 62 30 4 61 8 70 10 9 1 52 6 96 9 44 4 96 9
115 11 215 26 956 26 1231 0 24 -3 78 -7 119 -10 41 -3 95 -8 120 -10 25 -3
68 -8 95 -11 69 -7 249 -29 315 -39 14 -2 57 -8 95 -14 92 -14 135 -20 220
-31 127 -17 163 -20 242 -26 43 -3 98 -7 123 -9 55 -5 407 -5 470 -1 60 4 189
17 220 21 14 2 43 6 65 10 23 3 52 8 65 10 14 3 43 8 65 11 22 4 48 10 58 15
9 6 17 8 17 5 0 -2 27 4 60 14 33 10 60 16 60 13 0 -3 6 -1 13 5 6 5 27 13 45
17 17 3 71 22 119 42 242 97 434 222 589 382 108 112 163 186 261 346 80 131
179 426 199 590 2 22 7 46 9 53 3 8 8 50 11 95 7 97 8 107 29 171 19 61 19 77
-1 51 -12 -16 -17 -17 -23 -7 -6 10 -10 5 -14 -16 -4 -20 -28 -48 -74 -88 -37
-33 -70 -62 -73 -66 -15 -19 -241 -162 -327 -206 -165 -84 -492 -210 -514
-196 -4 2 -15 28 -25 57 -9 28 -40 97 -68 152 -127 248 -333 454 -581 581
-136 69 -259 109 -435 140 -36 6 -266 14 -272 9z"/>
<path d="M3590 5160 c-23 -39 -39 -77 -37 -84 3 -7 20 -20 39 -30 18 -9 51
-27 73 -41 22 -14 47 -28 55 -32 15 -7 151 -85 180 -103 44 -27 103 -60 109
-60 3 0 25 33 48 73 l43 72 -22 15 c-18 13 -228 136 -328 193 -19 10 -54 30
-77 44 l-42 24 -41 -71z"/>
<path d="M6900 5156 c-69 -40 -170 -99 -225 -131 -55 -31 -103 -60 -107 -64
-6 -5 60 -123 81 -144 5 -5 64 23 138 66 70 41 144 84 163 95 19 10 65 37 102
59 l68 39 -21 39 c-24 45 -68 115 -72 114 -1 0 -58 -33 -127 -73z"/>
</g>
</svg>
